<svg width="412" height="348" viewBox="0 0 412 348" fill="none" xmlns="http://www.w3.org/2000/svg">
<path d="M77.9988 277.229V244.411H6.96819L0 226.654L51.0252 110.442H90.5865L46.08 211.369H77.9988V183.046L85.4166 162.591H116.886V211.369H131.946V238.342L116.886 244.411V277.229H77.9988Z" fill="#008DAC"/>
<g filter="url(#filter0_d_4_2)">
<path d="M275.522 165.601C294.614 209.247 274.708 260.106 231.062 279.198C187.415 298.289 136.556 278.383 117.465 234.737C98.3736 191.09 118.279 140.231 161.926 121.14C205.572 102.049 256.431 121.955 275.522 165.601Z" fill="url(#paint0_linear_4_2)"/>
<path d="M162.158 174.95C165.096 181.664 162.034 189.489 155.32 192.427C148.605 195.364 140.78 192.303 137.843 185.588C134.905 178.874 137.967 171.049 144.681 168.111C151.396 165.173 159.221 168.235 162.158 174.95Z" fill="url(#paint1_linear_4_2)"/>
<path d="M243.205 139.814C244.891 141.77 244.573 144.329 242.493 145.528C240.413 146.728 237.36 146.114 235.673 144.157C233.987 142.201 234.305 139.642 236.385 138.443C238.465 137.243 241.518 137.857 243.205 139.814Z" fill="url(#paint2_linear_4_2)"/>
<path d="M273.681 201.809C276.307 202.723 277.41 206.409 276.145 210.041C274.881 213.674 271.727 215.877 269.101 214.963C266.476 214.049 265.373 210.363 266.637 206.731C267.902 203.098 271.056 200.895 273.681 201.809Z" fill="url(#paint3_linear_4_2)"/>
<path d="M193.974 117.029C194.144 118.51 191.183 120.065 187.362 120.502C183.541 120.939 180.306 120.093 180.136 118.612C179.967 117.132 182.927 115.577 186.748 115.139C190.57 114.702 193.805 115.548 193.974 117.029Z" fill="url(#paint4_linear_4_2)"/>
<path d="M226.351 249.727C228.204 259.378 220.425 268.984 208.975 271.183C197.524 273.382 186.74 267.341 184.886 257.69C183.033 248.04 190.812 238.434 202.263 236.235C213.713 234.035 224.497 240.076 226.351 249.727Z" fill="url(#paint5_linear_4_2)"/>
<path d="M167.389 117.686C167.965 118.864 164.534 121.722 159.727 124.071C154.92 126.419 150.557 127.368 149.981 126.191C149.406 125.013 152.836 122.154 157.643 119.806C162.45 117.457 166.814 116.508 167.389 117.686Z" fill="#C00C14"/>
<path d="M168.145 119.233C169.138 121.266 166.046 124.817 161.239 127.166C156.432 129.514 151.73 129.771 150.737 127.738C149.744 125.706 152.836 122.155 157.643 119.806C162.45 117.458 167.152 117.201 168.145 119.233Z" fill="#008DAC"/>
<path d="M164.638 117.93C164.805 118.272 162.212 119.883 158.845 121.528C155.479 123.173 152.614 124.229 152.446 123.886C152.279 123.543 154.872 121.932 158.239 120.287C161.606 118.643 164.47 117.587 164.638 117.93Z" fill="#ACE3F0"/>
<path d="M107.249 212.885C109.289 212.264 112.999 218.512 115.536 226.841C118.072 235.17 118.474 242.425 116.433 243.047C114.392 243.668 110.682 237.42 108.146 229.091C105.61 220.762 105.208 213.506 107.249 212.885Z" fill="#005CFF"/>
<path d="M109.929 212.068C113.45 210.996 118.361 216.879 120.897 225.208C123.433 233.537 122.635 241.158 119.113 242.23C115.592 243.302 110.682 237.419 108.145 229.091C105.609 220.762 106.408 213.14 109.929 212.068Z" fill="url(#paint6_linear_4_2)"/>
<path d="M106.932 217.368C107.526 217.187 109.447 221.77 111.223 227.603C112.999 233.436 113.958 238.312 113.364 238.492C112.771 238.673 110.849 234.091 109.073 228.258C107.297 222.424 106.338 217.549 106.932 217.368Z" fill="#B3F1FF"/>
<path d="M180.004 283.426C180.084 282.296 187.201 281.521 195.902 281.693C204.602 281.866 211.591 282.922 211.511 284.052C211.431 285.181 204.313 285.957 195.613 285.784C186.912 285.611 179.924 284.556 180.004 283.426Z" fill="url(#paint7_linear_4_2)"/>
<path d="M180.109 281.942C180.247 279.992 187.412 278.552 196.112 278.725C204.813 278.898 211.754 280.618 211.616 282.567C211.478 284.517 204.313 285.957 195.613 285.784C186.913 285.611 179.971 283.891 180.109 281.942Z" fill="url(#paint8_linear_4_2)"/>
<path d="M184.136 284.362C184.16 284.033 189.118 283.864 195.212 283.986C201.305 284.107 206.226 284.471 206.203 284.8C206.18 285.129 201.221 285.297 195.128 285.176C189.034 285.055 184.113 284.69 184.136 284.362Z" fill="#D0F5FD"/>
<path d="M269.63 248.567C267.934 247.795 269.114 241.558 272.267 234.636C275.419 227.714 279.349 222.729 281.045 223.501C282.741 224.274 281.56 230.511 278.408 237.433C275.256 244.354 271.326 249.339 269.63 248.567Z" fill="url(#paint9_linear_4_2)"/>
<path d="M267.401 247.553C264.475 246.221 264.658 239.529 267.81 232.607C270.962 225.686 275.89 221.155 278.816 222.488C281.742 223.82 281.559 230.512 278.407 237.433C275.255 244.355 270.327 248.886 267.401 247.553Z" fill="url(#paint10_linear_4_2)"/>
<path d="M272.427 245.814C271.934 245.59 273.324 241.477 275.531 236.63C277.739 231.782 279.929 228.034 280.422 228.259C280.916 228.484 279.526 232.596 277.318 237.443C275.111 242.291 272.921 246.039 272.427 245.814Z" fill="#130406"/>
<path d="M270.089 152.504C269.129 153.158 266.188 150.513 263.519 146.598C260.849 142.682 259.463 138.978 260.422 138.324C261.382 137.67 264.323 140.314 266.993 144.23C269.662 148.145 271.048 151.85 270.089 152.504Z" fill="url(#paint11_linear_4_2)"/>
<path d="M268.829 153.362C267.173 154.491 263.667 152.232 260.998 148.316C258.329 144.401 257.507 140.312 259.162 139.183C260.818 138.055 264.324 140.314 266.993 144.23C269.662 148.145 270.484 152.234 268.829 153.362Z" fill="url(#paint12_linear_4_2)"/>
<path d="M269.526 150.122C269.247 150.313 267.505 148.244 265.635 145.502C263.766 142.759 262.477 140.382 262.756 140.192C263.035 140.002 264.777 142.07 266.646 144.813C268.516 147.555 269.805 149.932 269.526 150.122Z" fill="#57CCE7"/>
<path d="M216.353 188.563C216.353 193.144 212.64 196.857 208.059 196.857C203.478 196.857 199.765 193.144 199.765 188.563C199.765 183.982 203.478 180.269 208.059 180.269C212.64 180.269 216.353 183.982 216.353 188.563Z" fill="#008DAC"/>
<path d="M144.692 249.166C142.61 250.96 138.498 249.601 135.509 246.131C132.519 242.66 131.783 238.393 133.865 236.599C135.948 234.805 140.059 236.164 143.049 239.634C146.039 243.105 146.775 247.372 144.692 249.166Z" fill="#008DAC"/>
<path d="M209.718 132.163C209.718 134.912 206.005 137.14 201.424 137.14C196.844 137.14 193.13 134.912 193.13 132.163C193.13 129.415 196.844 127.187 201.424 127.187C206.005 127.187 209.718 129.415 209.718 132.163Z" fill="#00CEFD"/>
<path d="M258.665 237.101C260.472 239.172 259.139 243.292 255.687 246.303C252.235 249.315 247.972 250.078 246.165 248.007C244.358 245.936 245.692 241.816 249.143 238.804C252.595 235.792 256.858 235.03 258.665 237.101Z" fill="#008DAC"/>
</g>
<path d="M126.384 128.453L130.251 129.957L142.709 125.446C142.709 125.446 145.274 127.59 146.791 129.098C147.927 130.228 148.812 130.7 149.583 132.105C149.891 132.665 150.423 133.001 150.228 133.609C150.063 134.12 149.653 134.271 149.154 134.468C148.529 134.715 148.101 134.555 147.435 134.468C145.872 134.263 143.998 132.75 143.354 133.179C142.709 133.609 142.642 134.631 142.28 135.972C141.918 137.312 144.494 141.003 143.354 143.919C143.039 144.724 143.054 145.471 142.28 145.853C141.678 146.15 141.205 146.041 140.561 145.853C139.364 145.503 139.155 144.492 138.413 143.49C137.03 141.62 135.836 138.12 135.836 138.12C135.836 138.12 136.666 140.836 136.91 142.631C137.08 143.88 137.434 144.63 137.124 145.853C136.968 146.472 137.015 147.007 136.48 147.356C136.122 147.59 135.834 147.571 135.406 147.571C134.978 147.571 134.721 147.535 134.332 147.356C133.629 147.033 133.466 146.5 133.043 145.853C132.447 144.94 132.376 144.287 131.969 143.275C131.068 141.034 129.821 137.475 129.821 137.475C129.821 137.475 130.24 141.438 129.821 143.919C129.692 144.682 130.044 145.437 129.391 145.853C129.1 146.038 128.878 146.068 128.532 146.068C128.186 146.068 127.986 146.001 127.673 145.853C126.853 145.464 126.8 144.726 126.384 143.919C125.739 142.67 125.568 141.865 125.31 140.483C124.91 138.338 124.777 137.083 124.881 134.898C124.945 133.547 124.991 132.775 125.31 131.461C125.604 130.249 126.384 128.453 126.384 128.453Z" fill="#C0C0C0"/>
<path d="M129.821 68.308C129.821 68.308 143.475 53.594 154.739 48.1163C166.767 42.2663 188.248 41.0277 188.248 41.0277C188.248 41.0277 196.968 53.6581 201.137 62.5083C207.402 75.8103 211.877 98.5956 211.877 98.5956L164.834 126.306C164.834 126.306 152.056 111.679 145.502 101.173C137.975 89.1076 129.821 68.308 129.821 68.308Z" fill="#CACACA"/>
<path d="M146.576 45.5385C135.312 51.0163 121.658 65.7303 121.658 65.7303C121.658 65.7303 129.813 86.5299 137.339 98.5955C143.893 109.102 156.671 123.728 156.671 123.728L164.834 126.305C164.834 126.305 152.056 111.679 145.502 101.173C137.975 89.1075 129.821 68.3079 129.821 68.3079C129.821 68.3079 143.475 53.5939 154.739 48.1162C166.767 42.2662 188.248 41.0276 188.248 41.0276C188.248 41.0276 196.968 53.658 201.137 62.5082C206.925 74.7956 211.184 95.1748 211.8 98.2122L211.877 98.1659C211.877 98.1659 209.09 77.3833 203.714 65.3006C199.145 55.0313 188.248 41.0276 188.248 41.0276L180.086 38.4499C180.086 38.4499 158.605 39.6885 146.576 45.5385Z" fill="#ACAAAA"/>
<path d="M121.658 65.7304C121.658 65.7304 129.813 86.5299 137.339 98.5956C143.893 109.102 156.671 123.728 156.671 123.728L164.834 126.306C164.834 126.306 152.056 111.679 145.502 101.173C137.975 89.1076 129.821 68.308 129.821 68.308L121.658 65.7304Z" fill="#BBB8B8"/>
<path d="M135.836 138.12C135.836 138.12 137.03 141.62 138.413 143.49C139.155 144.493 139.364 145.503 140.561 145.853C141.205 146.041 141.678 146.15 142.28 145.853C142.882 145.556 142.426 144.925 142.065 144.564C141.705 144.203 141.226 144.59 140.777 144.35C140.015 143.942 140.157 143.151 139.702 142.416C139.163 141.546 138.713 141.154 138.199 140.268C137.822 139.619 137.938 139.002 137.34 138.55C136.852 138.181 135.836 138.12 135.836 138.12Z" fill="#D6D6D6"/>
<path d="M129.82 137.475C129.82 137.475 131.067 141.034 131.968 143.275C132.375 144.287 132.446 144.94 133.043 145.853C133.465 146.5 133.629 147.034 134.331 147.356C134.72 147.535 134.978 147.571 135.405 147.571C135.833 147.571 135.644 147.057 135.621 146.712C135.575 146.058 135.793 145.952 135.406 145.423C134.827 144.634 134.512 144.782 134.05 143.92C133.482 142.861 132.92 141.564 132.398 140.483C131.99 139.638 132.386 139.028 131.754 138.335C131.392 137.938 130.642 137.564 129.82 137.475Z" fill="#D6D6D6"/>
<path d="M125.31 131.461C124.991 132.776 124.945 133.547 124.881 134.898C124.777 137.083 124.91 138.339 125.31 140.483C125.568 141.865 125.739 142.67 126.384 143.92C126.8 144.726 126.853 145.465 127.673 145.853C127.986 146.001 128.186 146.068 128.532 146.068C128.532 146.068 127.585 143.224 127.244 141.342C126.972 139.847 126.718 138.992 126.814 137.476C126.907 136.014 127.116 135.179 127.673 133.824C128.363 132.146 130.251 129.958 130.251 129.958L126.384 128.454C126.384 128.454 125.604 130.249 125.31 131.461Z" fill="#D6D6D6"/>
<path d="M142.996 60.7574C142.952 60.443 143.221 60.1788 143.537 60.2074C145.16 60.3542 146.434 60.321 148.295 60.1454C152.104 59.7861 154.182 58.9586 157.746 57.5678C159.46 56.899 160.403 56.469 162.042 55.6345C165.133 54.0616 166.777 52.9772 169.56 50.9088C172.216 48.9351 173.929 47.9802 175.96 45.4392C176.112 45.25 176.378 45.189 176.585 45.3145C179.23 46.9167 179.282 49.6776 180.515 51.768C180.515 51.768 175.439 53.6513 172.568 56.2789C169.458 59.1245 167.309 60.1832 163.331 61.8639C159.586 63.4462 156.839 64.1454 152.806 64.6564C149.294 65.1011 145.502 67.234 145.502 67.234C144.163 64.6601 143.324 63.1425 142.996 60.7574Z" fill="url(#paint13_linear_4_2)"/>
<path d="M211.233 157.238C211.405 156.246 211.233 154.66 211.233 154.66L226.269 158.527L225.195 162.178C225.195 162.178 230.823 168.238 231.639 173.133C232.069 175.711 230.844 181.511 227.128 181.511C220.47 181.511 217.834 178.498 214.025 173.993C210.626 169.971 207.437 166.601 208.87 161.534C209.391 159.691 210.906 159.124 211.233 157.238Z" fill="#C0C0C0"/>
<path d="M225.195 162.178L226.269 158.526H220.899C220.899 158.526 219.871 160.457 220.04 161.748C220.258 163.412 221.249 164.215 222.617 165.185C224.047 166.198 225.475 165.475 226.914 166.474C228.237 167.393 228.56 168.381 229.491 169.696C230.406 170.988 231.639 173.133 231.639 173.133C230.823 168.237 225.195 162.178 225.195 162.178Z" fill="#9C9C9C"/>
<path d="M211.233 157.238C210.906 159.124 209.391 159.691 208.87 161.534C207.437 166.601 210.626 169.971 214.025 173.993C217.834 178.498 220.47 181.511 227.128 181.511C227.128 181.511 222.501 180.39 220.04 178.718C217.337 176.883 216.187 175.26 214.455 172.489C213.322 170.675 212.53 169.642 212.092 167.549C211.714 165.742 211.501 164.571 212.092 162.823C212.54 161.5 213.468 161.096 214.025 159.816C214.545 158.621 214.885 156.593 214.885 156.593L211.233 154.66C211.233 154.66 211.405 156.246 211.233 157.238Z" fill="#D6D6D6"/>
<path d="M143.225 62.0786C144.513 62.5082 147.325 62.7052 149.412 62.5082C153.221 62.1489 155.471 61.5361 159.035 60.1453C160.749 59.4765 161.691 59.0466 163.331 58.2121C166.422 56.6392 168.495 55.34 171.279 53.2715C174.047 51.2146 177.25 48.9754 178.325 46.8273C178.754 47.257 179.216 48.5196 179.7 50.2642C179.7 50.2642 176.557 55.5845 173.685 58.2121C170.576 61.0577 168.427 62.1164 164.449 63.7971C160.704 65.3794 157.957 66.0786 153.923 66.5895C150.412 67.0343 144.902 65.7303 144.902 65.7303C144.471 65.7303 143.439 63.3674 143.225 62.0786Z" fill="url(#paint14_linear_4_2)"/>
<path d="M228.417 42.7462C228.417 42.7462 229.893 42.6209 230.78 42.3166C231.774 41.9756 232.296 41.6502 233.143 41.0278C234.099 40.3254 234.445 39.7116 235.291 38.8797C237.83 36.3828 241.95 32.6504 241.95 32.6504C241.95 32.6504 242.748 32.2941 243.239 32.4356C243.642 32.5519 243.833 32.7545 244.098 33.08C244.334 33.3712 244.453 33.5715 244.528 33.9392C244.628 34.4394 244.433 34.7323 244.313 35.2281C243.768 37.4661 241.091 40.0721 241.52 40.3834L241.95 40.5982C242.379 40.5982 244.437 38.5502 246.246 37.5909C247.142 37.1161 247.627 36.7687 248.609 36.5169C249.506 36.2867 250.192 35.8018 250.972 36.3021C251.481 36.6287 251.672 37.0073 251.831 37.5909C251.963 38.0765 251.889 38.3798 251.831 38.8797C251.51 41.6497 246.224 42.961 246.676 43.8203C246.816 44.088 246.835 44.3294 247.105 44.4647C247.535 44.6795 249.219 44.4912 250.542 44.2499C252.291 43.9309 253.067 42.8936 254.838 42.7462C255.423 42.6976 255.786 42.5573 256.342 42.7462C256.962 42.957 257.497 43.1789 257.631 43.8203C257.739 44.3396 257.449 44.6402 257.201 45.1091C256.757 45.9479 256.232 46.2449 255.483 46.8275C254.298 47.7488 253.436 47.9811 252.046 48.546C250.028 49.3658 248.583 48.9993 246.676 50.0496C245.779 50.5434 244.528 50.5293 244.528 51.5533C244.528 53.0569 248.816 53.7059 249.253 56.279C249.38 57.0233 249.694 57.5995 249.253 58.2122C248.834 58.7939 248.242 58.7396 247.535 58.8566C245.781 59.1468 244.946 57.8474 243.239 57.353C241.421 56.8266 240.395 56.4824 238.513 56.279C236.762 56.0896 234.002 56.279 234.002 56.279L233.358 45.9683L228.417 42.7462Z" fill="#C0C0C0"/>
<path d="M254.838 42.7462C253.066 42.8935 252.29 43.9309 250.542 44.2498C250.112 44.4646 250.111 44.4656 249.897 44.6795L249.897 44.6795C249.683 44.8933 249.408 45.0273 249.468 45.3239C249.527 45.6205 249.827 45.6518 250.112 45.7535C250.764 45.9862 251.184 45.5712 251.831 45.3239C252.356 45.1227 252.583 44.8495 253.119 44.6795C253.606 44.5252 253.903 44.5397 254.408 44.4646C255.077 44.3652 255.465 44.3877 256.127 44.2498C256.725 44.1254 257.764 44.4616 257.63 43.8202C257.497 43.1788 256.962 42.957 256.341 42.7462C255.785 42.5572 255.423 42.6975 254.838 42.7462Z" fill="#D6D6D6"/>
<path d="M246.246 37.591C244.527 38.665 243.453 39.5242 243.453 39.5242C243.453 39.5242 242.979 39.9208 243.238 40.3835C243.577 40.9868 244.297 41.0181 244.957 40.8131C245.472 40.5849 245.736 40.4064 246.246 40.1687C246.825 39.8988 247.201 39.8504 247.75 39.5242C248.517 39.069 248.714 38.4959 249.468 38.0206C249.944 37.7206 250.446 37.8451 250.757 37.3762C250.994 37.0197 251.752 36.8024 250.972 36.3021C250.192 35.8018 249.507 36.2868 248.609 36.5169C247.627 36.7687 247.106 37.0539 246.246 37.591Z" fill="#D6D6D6"/>
<path d="M230.78 42.3167C229.893 42.6209 229.213 42.2496 228.417 42.7463C226.463 43.9661 231.086 46.3485 233.358 45.9683C234.621 45.757 234.985 44.7812 236.15 44.2499C236.802 43.9525 237.289 44.0273 237.869 43.6055C238.398 43.2199 238.725 42.9345 238.943 42.3167C239.288 41.3381 238.14 40.7644 238.298 39.739C238.491 38.4955 239.484 38.1737 240.231 37.1613C240.909 36.2433 241.159 35.6204 241.95 34.7984C242.695 34.0246 244.362 33.4055 244.098 33.08C243.833 32.7545 243.642 32.5519 243.239 32.4356C242.748 32.2941 241.95 32.6504 241.95 32.6504C241.95 32.6504 237.83 36.3828 235.291 38.8798C234.445 39.7116 234.099 40.3254 233.143 41.0278C232.296 41.6502 231.774 41.9756 230.78 42.3167Z" fill="#D6D6D6"/>
<path d="M186.052 182.502C186.791 181.462 188.017 179.892 188.017 179.892L195.875 181.197L200.922 179.363L204.389 171.844C204.389 171.844 205.226 173.951 205.698 175.324C206.162 176.671 206.573 177.397 206.79 178.804C207.222 181.606 206.652 183.311 205.698 185.982C204.287 189.935 202.317 191.685 199.368 194.682C196.515 197.581 191.073 200.989 191.073 200.989C191.073 200.989 185.13 203.843 182.341 201.859C180.841 200.791 180.259 199.702 179.722 197.944C178.807 194.947 180.328 193.033 181.468 190.114C182.731 186.884 184.042 185.332 186.052 182.502Z" fill="#C0C0C0"/>
<path d="M205.698 175.324C205.225 173.951 204.388 171.844 204.388 171.844C204.388 171.844 199.778 176.339 200.922 179.363C201.531 180.972 203.341 180.967 203.929 182.585C204.827 185.054 203.227 186.707 201.996 189.029C201.014 190.882 200.178 191.767 198.774 193.325C197.184 195.09 196.467 195.861 194.907 197.406C193.452 198.849 191.073 200.989 191.073 200.989C191.073 200.989 196.515 197.581 199.368 194.681C202.316 191.685 204.286 189.935 205.698 185.982C206.652 183.311 207.222 181.606 206.79 178.804C206.573 177.397 206.162 176.671 205.698 175.324Z" fill="#9C9C9C"/>
<path d="M186.053 182.502C184.043 185.332 182.731 186.884 181.469 190.114C180.328 193.033 178.808 194.948 179.722 197.944C180.259 199.704 181.16 201.273 182.342 201.859C182.235 201.186 182.018 201.541 181.805 200.199C181.591 198.857 181.299 197.577 181.469 195.903C181.673 193.882 182.239 192.805 183.093 190.962C184.01 188.987 184.478 187.741 186.053 186.237C186.751 185.569 187.221 185.28 188.017 184.733C190.791 182.827 196.409 183.872 195.876 181.197C195.267 178.146 188.017 179.892 188.017 179.892C188.017 179.892 186.791 181.462 186.053 182.502Z" fill="#D6D6D6"/>
<path d="M143.845 64.1542C149.215 64.1542 150.615 64.2045 154.739 63.3675C158.898 62.5231 161.23 61.7821 165.049 59.9306C168.546 58.2354 170.468 57.0799 173.427 54.5604C175.957 52.4054 177.938 50.2643 179.226 48.3311C180.086 49.4051 180.043 49.8955 180.945 50.4791C181.26 50.6829 181.448 50.7921 181.804 50.9087C183.344 51.4126 184.098 49.7948 185.671 49.4051C187.632 48.9191 188.811 49.127 190.826 48.9755C195.183 48.6478 197.638 48.65 201.996 48.3311C205.859 48.0483 208.058 48.1216 211.877 47.4718C218.024 46.4259 220.901 43.058 227.128 42.7461C228.385 42.6832 229.122 42.473 230.35 42.7461C233.077 43.3525 234.064 45.2222 235.72 47.4718C236.899 49.0733 237.766 50.0195 238.083 51.9828C238.453 54.2733 238.341 56.0526 236.794 57.7825C235.059 59.7244 232.757 58.5057 230.35 59.501C227.638 60.6225 226.716 62.5202 223.906 63.3675C222.043 63.9292 220.849 63.5255 218.965 64.0119C215.587 64.8841 214.26 66.8034 211.018 68.0932C208.725 69.0052 207.428 69.5723 205.003 70.0264C203.264 70.3522 202.258 70.3461 200.492 70.4561C197.143 70.6646 196.84 69.5968 192.759 70.4561C192.759 71.5301 192.782 71.9188 193.404 72.8189C194.758 74.7814 195.804 75.6641 197.27 77.5446C202.563 84.334 203.236 89.9062 209.299 96.0179C210.046 96.7708 210.666 97.0184 211.259 97.8975C212.081 99.1154 211.596 100.24 212.36 101.495C213.611 103.552 215.299 103.878 217.422 105.013C218.996 105.854 220.1 105.882 221.624 106.812C223.444 107.923 224.213 108.912 225.732 110.41C226.989 111.65 227.54 112.494 228.793 113.739C230.553 115.489 232.063 115.958 233.572 117.928C234.896 119.656 235.519 120.786 236.15 122.869C236.666 124.572 236.889 125.603 236.794 127.38C236.683 129.474 235.87 130.519 235.291 132.535C233.992 137.053 233.669 139.714 232.069 144.134C230.471 148.547 228.471 150.593 227.128 155.09C226.487 157.234 227.415 159.085 225.839 160.674C224.419 162.107 222.915 162.141 220.899 162.178C218.905 162.215 217.739 161.787 215.958 160.889C214.722 160.266 214.002 159.862 213.058 158.849C211.921 157.626 210.357 156.748 210.158 155.09C209.514 149.719 210.488 147.872 211.662 143.49C212.243 141.323 213.605 140.361 213.703 138.12C213.782 136.32 213.52 135.231 212.736 133.609C208.655 131.246 206.292 131.246 198.559 129.742C198.129 129.742 196.84 129.742 195.981 133.824C195.552 136.616 196.315 139.356 197.27 143.06C198.154 146.489 198.402 148.476 199.418 151.867C200.782 156.419 202.119 158.776 203.714 163.252C204.489 165.426 205.325 166.552 205.648 168.837C205.882 170.498 205.923 171.478 205.648 173.133C205.154 176.094 204.449 177.938 202.64 180.437C201.7 181.735 201.271 182.707 199.848 183.444C198.276 184.257 197.106 183.837 195.337 183.873C193.657 183.908 192.691 183.972 191.041 183.659C189.659 183.396 188.765 183.378 187.604 182.585C186.522 181.845 186.233 181.062 185.456 180.007C183.032 176.713 182.123 174.398 180.515 170.556C178.456 165.634 177.805 162.661 176.649 157.452C176.167 155.284 176.055 154.036 175.575 151.867C174.633 147.615 175.059 146.682 172.997 142.846C171.801 140.621 169.795 138.189 168.808 135.864C167.857 133.623 168.272 131.927 167.197 129.742C165.809 126.921 165.909 129.742 162.686 123.298C159.797 117.519 156.242 115.135 154.524 108.906C154.226 107.827 154.111 107.209 153.879 106.114C153.597 104.778 153.5 104.016 153.235 102.677C152.5 98.9638 152.161 94.7291 151.087 93.2255C150.67 93.1815 150.432 93.2042 150.013 93.2255C146.576 93.4001 149.426 106.089 146.146 113.417C145.533 114.787 144.83 115.408 144.428 116.854C143.867 118.875 144.869 120.174 144.428 122.224C143.939 124.498 143.385 125.846 141.85 127.594C140.499 129.133 139.501 129.967 137.554 130.602C135.481 131.278 134.14 130.812 131.969 130.602C130.102 130.421 128.865 130.686 127.243 129.742C125.858 128.936 125.064 128.216 124.451 126.735C123.777 125.108 124.641 123.976 124.451 122.224C124.276 120.605 123.85 119.751 123.592 118.143C123.364 116.725 122.968 115.914 123.162 114.491C123.306 113.44 123.774 112.945 124.021 111.914C124.395 110.355 124.416 109.435 124.451 107.832C124.495 105.812 123.922 104.695 124.021 102.677C124.084 101.409 124.287 100.714 124.451 99.4548C124.899 96.019 124.552 93.9733 125.525 90.6478C125.875 89.4509 126.061 88.7656 126.599 87.6405C127.151 86.4853 127.607 85.9133 128.318 84.848C129.183 83.5499 129.826 82.9317 130.68 81.626C132.529 78.8006 132.761 76.7586 134.547 73.8929C135.408 72.5105 135.85 71.6931 136.91 70.4561C138.734 68.3267 139.773 66.6178 142.495 65.9451C142.99 65.8227 143.407 66.0752 143.784 65.7303C144.221 65.3295 143.684 64.7252 143.845 64.1542Z" fill="url(#paint15_linear_4_2)"/>
<path d="M211.261 97.8975C210.667 97.0185 210.047 96.7709 209.3 96.018C203.237 89.9062 202.565 84.334 197.271 77.5447C195.805 75.6642 194.759 74.7814 193.405 72.819C192.784 71.9188 192.76 70.4561 192.76 70.4561C192.76 70.4561 190.61 69.9966 189.538 69.1673C187.14 67.3124 188.034 61.649 187.604 61.6491C183.037 61.6495 188.278 68.757 189.109 73.2486C189.608 75.9506 189.811 77.4941 190.612 80.1224C192.046 84.8243 193.302 87.3862 195.982 91.5071C199.059 96.2375 200.714 99.5096 205.649 102.247C209.779 104.539 219.546 106.148 217.423 105.013C215.3 103.878 213.613 103.552 212.361 101.496C211.598 100.24 212.083 99.1155 211.261 97.8975Z" fill="white"/>
<path d="M192.759 70.4561C196.84 69.5969 197.143 70.6646 200.492 70.4561C203.841 70.2476 196.851 69.6053 194.907 68.308C193.476 67.3526 192.828 66.5874 191.685 65.3008C190.448 63.9085 187.604 61.6491 187.604 61.6491C187.604 61.6491 187.516 64.0539 187.819 65.3008C188.17 66.7452 188.018 67.8614 189.108 68.9525C190.143 69.9889 192.759 70.4561 192.759 70.4561Z" fill="url(#paint16_linear_4_2)"/>
<path d="M198.559 129.743C206.292 131.246 208.655 131.246 212.736 133.609C213.52 135.231 213.782 136.32 213.703 138.12C213.605 140.361 212.243 141.323 211.662 143.49C210.489 147.873 209.514 149.719 210.159 155.09C210.358 156.748 211.921 157.626 213.059 158.849C214.197 160.072 214.643 157.973 214.67 157.023C214.697 156.041 213.545 155.944 213.059 155.09C212.052 153.322 212.167 151.964 212.307 149.934C212.491 147.26 213.819 146.032 214.67 143.49C215.698 140.42 217.574 138.735 217.033 135.542C216.592 132.947 215.584 131.469 213.596 129.743C211.132 127.603 208.909 127.05 205.648 127.165C202.704 127.268 199.203 128.239 198.559 129.743Z" fill="#008DAC"/>
<path d="M166.111 79.6929L166.97 79.0485C166.97 79.0485 167.268 82.4524 167.185 84.6335C167.101 86.8274 167.163 88.1129 166.54 90.2184C165.72 92.9923 164.028 94.0036 162.889 96.6625C162.189 98.2965 161.385 100.959 161.385 100.959C161.385 100.959 160.041 95.2892 160.741 93.6553C161.88 90.9964 163.572 89.985 164.392 87.2111C165.015 85.1056 164.953 83.8201 165.037 81.6262C166.111 79.6929 166.111 79.6929 166.111 79.6929Z" fill="#008DAC"/>
<path d="M143.784 65.7304C143.407 66.0752 142.99 65.8227 142.495 65.9452C139.773 66.6178 138.734 68.3268 136.91 70.4561C135.85 71.6931 135.408 72.5106 134.547 73.893C132.761 76.7586 132.529 78.8006 130.68 81.626C129.826 82.9317 129.183 83.5499 128.318 84.8481C127.607 85.9133 127.151 86.4853 126.599 87.6405C126.061 88.7656 125.875 89.4509 125.525 90.6478C124.552 93.9734 124.899 96.019 124.451 99.4548C124.287 100.714 124.084 101.409 124.021 102.677C123.922 104.695 124.495 105.812 124.451 107.832C124.416 109.435 124.395 110.355 124.021 111.914C123.774 112.945 123.306 113.44 123.162 114.491C122.968 115.914 123.364 116.725 123.592 118.143C123.85 119.751 124.276 120.605 124.451 122.224C124.641 123.976 123.777 125.108 124.451 126.735C125.064 128.216 125.858 128.936 127.243 129.742C128.865 130.686 130.102 130.421 131.969 130.602C133.836 130.783 132.276 122.054 133.043 116.639C134.008 109.829 135.035 106.073 136.91 99.4548C138.746 92.9718 139.903 89.3493 142.495 83.1296C145.424 76.0999 158.332 68.6584 151.302 65.7304H143.784Z" fill="#008DAC"/>
<path d="M191.041 183.659C192.691 183.972 195.337 183.873 195.337 183.873C199.61 182.407 192.617 177.367 191.041 173.133C189.615 169.304 188.78 167.165 187.604 163.252C186.655 160.095 186.966 158.02 185.456 155.089C184.249 152.748 182.609 152.046 181.375 149.719C179.208 145.636 179.439 142.723 179.012 138.12C178.648 134.194 179.012 131.967 179.012 128.024C179.012 124.92 179.28 123.168 179.012 120.076C178.784 117.452 179.677 115.395 177.938 113.417C176.548 111.837 175.098 97.8988 172.997 97.7822C170.586 97.6484 169.142 98.4974 167.197 99.9303C163.783 102.447 159.464 116.854 162.687 123.298C165.909 129.742 165.809 126.921 167.197 129.742C168.272 131.927 167.857 133.623 168.808 135.864C169.795 138.189 171.801 140.621 172.997 142.845C175.06 146.682 174.633 147.615 175.575 151.867C176.055 154.036 176.168 155.284 176.649 157.452L176.682 157.603C177.818 162.719 178.476 165.681 180.515 170.555C182.123 174.397 182.956 176.676 185.456 180.007C186.243 181.055 186.522 181.845 187.604 182.585C188.765 183.378 189.659 183.396 191.041 183.659Z" fill="white"/>
<path d="M168.221 64.8821L168.952 64.4306C168.952 64.4306 172.805 69.3291 174.969 72.6776C179.008 78.9292 179.969 83.1713 183.562 89.6895C185.507 93.2177 186.778 95.0938 188.718 98.625C191.564 103.807 193.903 106.448 195.592 112.115C197.109 117.204 197.311 125.604 197.311 125.604L196.58 126.056C196.58 126.056 196.378 117.656 194.861 112.566C193.172 106.9 190.833 104.259 187.987 99.0766C186.047 95.5453 184.776 93.6692 182.831 90.141C179.238 83.6228 178.277 79.3808 174.238 73.1292C172.074 69.7806 168.221 64.8821 168.221 64.8821Z" fill="url(#paint17_linear_4_2)"/>
<path d="M180.515 50.2644C180.515 50.2644 181.163 50.6737 181.589 50.8229C182.449 51.1236 182.415 50.9938 182.878 50.9087C183.738 50.694 184.117 49.9817 185.026 49.6199C185.594 49.394 185.932 49.3153 186.53 49.1903C187.601 48.9664 188.231 49.0459 189.322 48.9755C191.333 48.8458 192.465 48.8509 194.478 48.7607C196.24 48.6817 197.228 48.6477 198.989 48.5459C201.34 48.41 202.653 48.2657 205.003 48.1163C206.429 48.0256 208.655 47.9015 208.655 47.9015C209.046 48.3065 209.13 48.6536 209.299 49.1903C209.978 51.3446 208.766 52.9812 207.151 54.5604C205.33 56.3413 203.452 56.2023 200.922 56.4937C197.645 56.871 195.826 55.756 192.545 55.4196C186.61 54.8113 177.293 54.5604 177.293 54.5604L179.227 52.4124L180.515 50.2644Z" fill="#008DAC"/>
<path d="M143.999 65.3009C143.999 65.3009 157.223 66.0293 164.941 62.938C172.371 59.9625 180.644 50.2645 180.644 50.2645C180.836 50.4156 180.948 50.4938 181.159 50.6211C181.159 50.6211 172.785 60.4763 165.479 63.5824C157.559 66.9495 143.783 65.7305 143.783 65.7305C143.936 65.588 143.968 65.4911 143.999 65.3009Z" fill="url(#paint18_linear_4_2)"/>
<path d="M143.999 65.3009C143.999 65.3009 157.223 66.0293 164.941 62.938C172.371 59.9625 180.644 50.2645 180.644 50.2645C180.836 50.4156 180.948 50.4938 181.159 50.6211C181.159 50.6211 172.785 60.4763 165.479 63.5824C157.559 66.9495 143.783 65.7305 143.783 65.7305C143.936 65.588 143.968 65.4911 143.999 65.3009Z" fill="url(#paint19_linear_4_2)"/>
<path d="M149.369 79.0485H149.799C149.799 79.0485 151.674 83.6692 151.732 86.7815C151.779 89.3225 150.658 93.1999 150.658 93.1999C150.241 93.2139 150.411 93.2128 150.228 93.2128C150.228 93.2128 151.383 89.1946 151.302 86.5667C151.209 83.5366 149.369 79.0485 149.369 79.0485Z" fill="url(#paint20_linear_4_2)"/>
<path d="M116.928 24.5299C117.524 21.7178 118.217 20.1734 119.684 17.6561C121.067 15.2841 122.115 14.0774 124.049 12.0712C126.78 9.23936 128.624 7.85092 132.09 5.84179C135.435 3.90294 137.533 3.10174 141.279 1.97529C145.366 0.746357 147.787 0.202341 152.077 0.0420373C155.494 -0.0856534 157.452 0.0632681 160.807 0.686454C162.813 1.05926 163.975 1.23391 165.861 1.97529C167.676 2.68907 168.654 3.22814 170.226 4.33815C174.237 7.17129 175.335 10.0121 177.577 14.2192C178.744 16.4081 179.259 17.7044 180.104 20.019C180.976 22.4072 181.516 23.7564 181.942 26.2483C182.551 29.8102 182.947 32.0024 181.942 35.485C181.127 38.3104 180.074 39.7549 178.266 42.1439C176.652 44.2768 175.573 45.395 173.442 47.0845C170.801 49.1777 168.906 49.8408 165.861 51.3806C162.118 53.273 160.032 54.4578 155.982 55.6767C150.124 57.4397 146.366 58.8666 140.36 57.61C137.222 56.9532 135.504 56.2 132.779 54.6027C130.619 53.336 129.555 52.3968 127.725 50.7362C123.848 47.2183 121.865 44.8323 119.684 40.2107C117.006 34.5327 115.636 30.6172 116.928 24.5299Z" fill="url(#paint21_linear_4_2)"/>
<path d="M120.762 37.418L131.287 54.6025C131.287 54.6025 128.12 54.7593 126.347 53.9581C124.346 53.0539 123.553 51.8697 122.265 50.0916C121.011 48.3594 120.436 47.2221 119.903 45.151C119.212 42.4703 120.762 37.418 120.762 37.418Z" fill="#B7B6B2"/>
<path d="M175.575 15.6809C175.575 15.6809 179.947 17.2111 181.123 18.0858C182.123 18.8304 182.58 19.4105 183.271 20.4486C184.359 22.0834 184.703 23.2316 184.989 25.1744C185.197 26.5852 185.197 27.4152 184.989 28.826C184.703 30.7688 181.123 36.7318 181.123 36.7318L175.575 15.6809Z" fill="#B7B7C3"/>
<g filter="url(#filter1_f_4_2)">
<path d="M179.834 20.0496L180.788 19.3745C180.788 19.3745 181.723 20.8536 182.22 21.8499C182.898 23.2086 183.208 24.008 183.651 25.4505C183.865 26.1465 184.237 26.5333 184.128 27.2507C184.022 27.9522 183.174 28.826 183.174 28.826C183.174 28.826 182.689 26.6055 182.22 25.2254C181.506 23.1267 179.834 20.0496 179.834 20.0496Z" fill="#62635E" fill-opacity="0.5"/>
</g>
<path d="M120.332 27.9667C120.89 25.1546 121.538 23.6103 122.91 21.0929C124.203 18.721 125.183 17.5142 126.991 15.508C129.545 12.6762 131.269 11.2878 134.51 9.27863C137.637 7.33978 139.599 6.53858 143.102 5.41213C146.923 4.1832 149.187 3.63919 153.198 3.47888C156.393 3.35119 158.224 3.50011 161.36 4.1233C163.237 4.49611 164.323 4.67075 166.086 5.41213C167.784 6.12591 168.698 6.66499 170.167 7.77499C173.918 10.6081 174.944 13.4489 177.041 17.6561C178.132 19.845 178.614 21.1412 179.404 23.4558C180.219 25.8441 180.724 27.1932 181.122 29.6852C181.692 33.2471 182.062 35.4392 181.122 38.9218C180.36 41.7472 179.376 43.1918 177.686 45.5808C176.177 47.7136 175.168 48.8318 173.175 50.5213C170.706 52.6146 168.933 53.2776 166.086 54.8174C162.587 56.7098 160.636 57.8947 156.849 59.1135C151.372 60.8765 147.858 62.3035 142.243 61.0468C139.308 60.39 137.702 59.6369 135.154 58.0395C133.134 56.7729 132.14 55.8336 130.428 54.173C126.803 50.6551 124.949 48.2692 122.91 43.6475C120.405 37.9695 119.125 34.054 120.332 27.9667Z" fill="url(#paint22_linear_4_2)"/>
<path d="M128.495 31.8332C130.428 28.6112 131.19 27.5065 133.436 25.1743C136.008 22.5035 137.78 21.2909 140.954 19.3745C144.039 17.5123 145.945 16.7394 149.332 15.508C154.057 13.7896 156.42 13.36 160.287 13.36C163.019 13.36 164.85 15.0606 166.516 17.2264C168.664 20.019 169.15 20.6587 170.812 23.8854C172.139 26.4613 173.605 30.7592 173.605 30.7592C173.605 30.7592 174.613 34.4105 173.605 36.3441C171.027 41.2847 166.453 45.2386 160.287 48.8029C153.852 52.5225 151.909 53.9583 142.028 53.5286C137.302 52.4546 130.078 45.4929 128.495 37.2034C128.163 35.4652 127.585 33.3507 128.495 31.8332Z" fill="url(#paint23_linear_4_2)"/>
<path d="M137.732 21.308C140.843 18.9889 142.972 17.8976 146.539 16.3675C150.002 14.8817 152.036 14.0374 155.775 13.575C157.11 13.4099 159.212 13.3602 159.212 13.3602C159.212 13.3602 151.222 21.7247 148.472 28.3966C145.439 35.7565 145.68 48.5883 145.68 48.5883L136.658 49.4475C136.658 49.4475 128.666 35.7303 129.999 30.1151C130.428 28.3053 131.646 26.919 133.221 25.1745C134.77 23.4589 135.879 22.6891 137.732 21.308Z" fill="url(#paint24_linear_4_2)"/>
<path fill-rule="evenodd" clip-rule="evenodd" d="M132.779 24.8194C130.449 27.2512 129.659 28.4031 127.654 31.7627C126.814 33.1698 127.196 35.0693 127.533 36.7472C127.575 36.9561 127.616 37.1616 127.654 37.3622C129.296 46.0057 136.79 53.2647 141.692 54.3845C151.454 54.8113 153.746 53.4735 159.709 49.9945L160.632 49.457C167.028 45.7406 171.773 41.6178 174.446 36.4663C175.493 34.45 174.446 30.6428 174.446 30.6428C174.446 30.6428 172.926 26.1614 171.55 23.4755C169.826 20.111 169.322 19.4439 167.094 16.5322C165.366 14.2738 163.466 12.5006 160.632 12.5006C156.621 12.5006 154.17 12.9485 149.268 14.7403C145.755 16.0243 143.778 16.8302 140.578 18.772C137.285 20.7702 135.448 22.0346 132.779 24.8194ZM133.435 25.1741C131.189 27.5063 130.428 28.611 128.495 31.8331C127.686 33.1822 128.053 35.0034 128.378 36.6123C128.418 36.813 128.458 37.0105 128.495 37.2033C130.078 45.4927 137.302 52.4545 142.028 53.5285C151.438 53.9377 153.649 52.6548 159.397 49.3182C159.684 49.1515 159.98 48.9797 160.286 48.8027C166.452 45.2385 171.026 41.2845 173.604 36.344C174.613 34.4103 173.604 30.759 173.604 30.759C173.604 30.759 172.138 26.4612 170.812 23.8852C169.15 20.6585 168.664 20.0188 166.515 17.2263C164.849 15.0604 163.019 13.3598 160.286 13.3598C156.42 13.3598 154.057 13.7894 149.331 15.5078C145.945 16.7392 144.038 17.5121 140.954 19.3743C137.779 21.2907 136.008 22.5034 133.435 25.1741Z" fill="url(#paint25_linear_4_2)"/>
<path d="M225.598 134.053C227.405 132.35 229.424 128.883 229.424 128.883C229.424 128.883 228.999 130.228 228.659 131.06C227.874 132.981 227.165 133.877 225.598 135.141C224.037 136.4 221.261 137.046 221.261 137.046C221.261 137.046 224.086 135.478 225.598 134.053Z" fill="#AC7341"/>
<ellipse rx="4.27281" ry="4.26958" transform="matrix(0.777144 -0.629323 0.629318 0.777148 178.758 65.5807)" fill="#59C7EA"/>
<path d="M176.144 68.9478L176.474 67.4568L177.15 67.4557L177.512 66.4861L178.333 66.3419L177.428 65.6426L180.596 65.629L178.806 64.9954L178.021 63.1574L180.04 63.5272L180.347 62.9404L182.397 63.2847L183.048 64.3459L183.298 65.5234L182.471 68.0417L180.867 69.4712L178.878 70.0401L176.627 69.5454L176.144 68.9478Z" fill="#DBDBDB"/>
<path fill-rule="evenodd" clip-rule="evenodd" d="M180.663 65.6261L178.271 65.6475L177.559 65.6666L178.415 66.3319L177.802 66.6194L177.337 67.6503L176.572 67.7549L176.112 69.1024L176.218 67.0019L177.034 67.2765L177.125 65.3087L178.12 65.4614L178.085 64.5313L177.729 62.7431L178.628 62.8861L179.815 63.3482L179.926 62.6342C181.521 63.0169 182.345 63.2336 182.397 63.2845C182.45 63.3353 181.784 63.2816 180.399 63.1234L181.184 64.267L179.645 63.9774L178.24 63.3742L178.617 64.3182L180.042 64.6318L178.909 65.0265L180.663 65.6261Z" fill="white"/>
<path fill-rule="evenodd" clip-rule="evenodd" d="M176.986 65.2212C176.986 65.2212 176.4 65.3344 176.149 65.5827C175.898 65.831 175.762 65.9415 175.762 65.9415C175.762 65.9415 176.087 66.1752 176.383 66.2062C176.678 66.1974 176.652 66.2592 176.652 66.2592C175.908 69.7512 178.408 71.3581 181.43 68.9113C181.43 68.9113 180.252 68.6152 179.723 68.3136C179.059 67.9147 179.307 67.1508 179.307 67.1508C179.307 67.1508 179.733 66.781 180.601 66.8592C181.016 66.8965 181.356 66.6678 181.38 66.6297C181.44 66.5361 181.318 66.2737 181.318 66.2737C181.318 66.2737 181.471 66.2399 181.524 65.9709C181.578 65.702 181.422 65.2863 181.422 65.2863C181.422 65.2863 180.7 65.194 180.431 65.1409C180.162 65.0878 179.753 64.996 179.5 64.7948C179.247 64.5935 178.414 64.3495 178.414 64.3495C176.366 63.4302 175.278 64.4676 174.933 65.5186C174.783 66.0367 174.825 66.8059 175.825 67.1455C175.254 66.5331 175.23 66.1492 175.276 65.911C175.434 65.1084 176.311 64.5948 176.986 65.2212Z" fill="#BC0624"/>
<g filter="url(#filter2_i_4_2)">
<path d="M174.934 65.5176C175.238 64.4664 176.308 63.6854 177.676 64.0876C177.676 64.0876 177.171 64.3466 177.044 64.6519C176.958 64.8578 176.986 65.2202 176.986 65.2202C176.312 64.5938 175.434 65.1075 175.277 65.9101C175.23 66.1483 175.255 66.5322 175.826 67.1446C174.825 66.805 174.784 66.0358 174.934 65.5176Z" fill="#7B5C46"/>
<path d="M174.934 65.5176C175.238 64.4664 176.308 63.6854 177.676 64.0876C177.676 64.0876 177.171 64.3466 177.044 64.6519C176.958 64.8578 176.986 65.2202 176.986 65.2202C176.312 64.5938 175.434 65.1075 175.277 65.9101C175.23 66.1483 175.255 66.5322 175.826 67.1446C174.825 66.805 174.784 66.0358 174.934 65.5176Z" fill="url(#paint26_linear_4_2)"/>
</g>
<path d="M181.187 65.522C181.169 65.5001 181.165 65.4701 181.177 65.4444L181.221 65.348C181.229 65.3307 181.24 65.3155 181.255 65.3035C181.281 65.2826 181.314 65.2731 181.347 65.2771L181.422 65.2863L181.449 65.3287C181.456 65.3398 181.462 65.3519 181.466 65.3646C181.495 65.4578 181.424 65.552 181.327 65.5507L181.244 65.5495C181.222 65.5492 181.201 65.5391 181.187 65.522Z" fill="#1C1C21"/>
<mask id="mask0_4_2" style="mask-type:alpha" maskUnits="userSpaceOnUse" x="174" y="63" width="4" height="5">
<path d="M174.933 65.5182C175.237 64.467 176.307 63.6862 177.675 64.0884L176.986 65.2208C176.311 64.5944 175.433 65.1081 175.276 65.9106C175.229 66.1488 175.254 66.5328 175.825 67.1452C174.825 66.8056 174.783 66.0364 174.933 65.5182Z" fill="#7B5C46"/>
<path d="M174.933 65.5182C175.237 64.467 176.307 63.6862 177.675 64.0884L176.986 65.2208C176.311 64.5944 175.433 65.1081 175.276 65.9106C175.229 66.1488 175.254 66.5328 175.825 67.1452C174.825 66.8056 174.783 66.0364 174.933 65.5182Z" fill="url(#paint27_linear_4_2)"/>
</mask>
<g mask="url(#mask0_4_2)">
<path d="M177.115 63.969C176.783 64.4826 176.667 64.7346 176.756 65.0528" stroke="#372620" stroke-width="0.1" stroke-miterlimit="2.6131"/>
<path d="M177.115 63.969C176.783 64.4826 176.667 64.7346 176.756 65.0528" stroke="url(#paint28_linear_4_2)" stroke-width="0.1" stroke-miterlimit="2.6131"/>
<path d="M176.476 64.0176C176.402 64.3678 176.306 64.6093 176.443 64.9547" stroke="#372620" stroke-width="0.1" stroke-miterlimit="2.6131"/>
<path d="M176.476 64.0176C176.402 64.3678 176.306 64.6093 176.443 64.9547" stroke="url(#paint29_linear_4_2)" stroke-width="0.1" stroke-miterlimit="2.6131"/>
<path d="M175.808 64.3112C175.852 64.6056 175.916 64.7474 176.112 64.9816" stroke="#372620" stroke-width="0.1" stroke-miterlimit="2.6131"/>
<path d="M175.808 64.3112C175.852 64.6056 175.916 64.7474 176.112 64.9816" stroke="url(#paint30_linear_4_2)" stroke-width="0.1" stroke-miterlimit="2.6131"/>
<path d="M175.4 64.64C175.539 64.8843 175.61 64.9617 175.825 65.1244" stroke="#372620" stroke-width="0.1" stroke-miterlimit="2.6131"/>
<path d="M175.4 64.64C175.539 64.8843 175.61 64.9617 175.825 65.1244" stroke="url(#paint31_linear_4_2)" stroke-width="0.1" stroke-miterlimit="2.6131"/>
<path d="M175.164 64.9419C175.275 65.1539 175.37 65.2412 175.581 65.3481" stroke="#372620" stroke-width="0.1" stroke-miterlimit="2.6131"/>
<path d="M175.164 64.9419C175.275 65.1539 175.37 65.2412 175.581 65.3481" stroke="url(#paint32_linear_4_2)" stroke-width="0.1" stroke-miterlimit="2.6131"/>
<path d="M174.953 65.3414C174.916 65.4158 175.421 65.7403 175.38 65.631" stroke="#372620" stroke-width="0.1" stroke-miterlimit="2.6131"/>
<path d="M174.953 65.3414C174.916 65.4158 175.421 65.7403 175.38 65.631" stroke="url(#paint33_linear_4_2)" stroke-width="0.1" stroke-miterlimit="2.6131"/>
<path d="M174.84 65.7995C175.002 65.9082 175.102 65.9467 175.291 65.9649" stroke="#372620" stroke-width="0.1" stroke-miterlimit="2.6131"/>
<path d="M174.84 65.7995C175.002 65.9082 175.102 65.9467 175.291 65.9649" stroke="url(#paint34_linear_4_2)" stroke-width="0.1" stroke-miterlimit="2.6131"/>
</g>
<path d="M181.43 68.9118C178.347 69.5331 177.837 67.2211 177.967 65.9874C177.913 66.4999 178.297 66.9526 178.511 67.1094C178.699 67.2903 179.106 67.2492 179.293 67.2017C179.184 67.6836 179.446 68.0708 179.605 68.2025C179.823 68.3838 181.43 68.9118 181.43 68.9118Z" fill="#8F0018"/>
<g filter="url(#filter3_i_4_2)">
<path fill-rule="evenodd" clip-rule="evenodd" d="M179.301 65.355C179.301 65.355 179.089 65.2594 178.996 65.3183C178.903 65.377 178.905 65.4425 178.838 65.4982C178.77 65.5537 178.719 65.5602 178.719 65.5602C178.719 65.5602 178.887 65.6425 179.027 65.5871C179.168 65.5318 179.274 65.4337 179.274 65.4337L179.301 65.355Z" fill="#A4001B"/>
</g>
<g filter="url(#filter4_i_4_2)">
<path fill-rule="evenodd" clip-rule="evenodd" d="M180.548 66.4177C180.548 66.4177 180.572 66.3519 180.841 66.3069C181.11 66.262 181.317 66.2741 181.317 66.2741" fill="#AD0420"/>
</g>
<path d="M176.652 66.2602C176.823 66.3134 176.947 66.2959 177.084 66.2494C176.92 66.362 176.77 66.4086 176.63 66.3674C176.636 66.3374 176.645 66.2904 176.652 66.2602Z" fill="url(#paint35_linear_4_2)" fill-opacity="0.3"/>
<g filter="url(#filter5_i_4_2)">
<path d="M175.977 66.071C175.977 66.071 176.027 66.0941 176.19 65.9131C176.353 65.7322 176.496 65.5998 176.75 65.5849C176.778 65.5833 177.206 65.6909 177.219 65.3301C177.255 65.3662 177.125 65.7842 177.297 66.0613C177.027 66.436 176.652 66.2602 176.652 66.2602C176.652 66.2602 176.607 66.2124 176.383 66.2068C176.16 66.2013 175.977 66.071 175.977 66.071Z" fill="#AD0420"/>
</g>
<g filter="url(#filter6_i_4_2)">
<path d="M178.956 65.4329C179.039 65.3068 179.184 65.3671 179.184 65.3671C179.143 65.3464 179.011 65.4182 179.036 65.478C179.054 65.5205 179.171 65.4326 179.178 65.4239C179.174 65.4316 179.057 65.549 178.996 65.5604C178.934 65.5719 178.819 65.5586 178.819 65.5586C178.874 65.5536 178.942 65.4545 178.956 65.4329Z" fill="#810016"/>
</g>
<path fill-rule="evenodd" clip-rule="evenodd" d="M181.7 69.2134C183.708 67.5875 184.019 64.6432 182.394 62.637C180.769 60.6307 177.825 60.3224 175.817 61.9482C173.809 63.5741 173.499 66.5184 175.123 68.5246C176.748 70.5308 179.692 70.8392 181.7 69.2134ZM181.446 68.8989C183.279 67.4138 183.563 64.7244 182.079 62.8918C180.595 61.0593 177.906 60.7777 176.072 62.2627C174.238 63.7478 173.954 66.4372 175.438 68.2698C176.922 70.1023 179.612 70.3839 181.446 68.8989Z" fill="#BC0624"/>
<path fill-rule="evenodd" clip-rule="evenodd" d="M181.7 69.2134C183.708 67.5875 184.019 64.6432 182.394 62.637C180.769 60.6307 177.825 60.3224 175.817 61.9482C173.809 63.5741 173.499 66.5184 175.123 68.5246C176.748 70.5308 179.692 70.8392 181.7 69.2134ZM181.446 68.8989C183.279 67.4138 183.563 64.7244 182.079 62.8918C180.595 61.0593 177.906 60.7777 176.072 62.2627C174.238 63.7478 173.954 66.4372 175.438 68.2698C176.922 70.1023 179.612 70.3839 181.446 68.8989Z" fill="url(#paint36_linear_4_2)"/>
<path d="M327.64 290.4C314.36 290.4 303 288.8 293.56 285.6C284.12 282.4 276.52 278.4 270.76 273.6C265 268.64 260.68 263.36 257.8 257.76C255.08 252.16 253.64 246.96 253.48 242.16C253.48 240.72 253.96 239.52 254.92 238.56C256.04 237.44 257.32 236.88 258.76 236.88H298.6C300.68 236.88 302.28 237.28 303.4 238.08C304.52 238.72 305.56 239.76 306.52 241.2C307.64 243.12 309.16 244.8 311.08 246.24C313 247.52 315.32 248.48 318.04 249.12C320.76 249.6 324.04 249.84 327.88 249.84C334.76 249.84 339.96 248.32 343.48 245.28C347 242.08 348.76 237.92 348.76 232.8C348.76 227.68 347 224 343.48 221.76C339.96 219.36 334.92 218.16 328.36 218.16H300.04C298.28 218.16 296.76 217.52 295.48 216.24C294.36 214.96 293.8 213.52 293.8 211.92V195.36C293.8 193.12 294.2 191.28 295 189.84C295.96 188.24 297 187.12 298.12 186.48L334.36 160.8H269.56C267.8 160.8 266.28 160.16 265 158.88C263.88 157.6 263.32 156.16 263.32 154.56V126.24C263.32 124.48 263.88 123.04 265 121.92C266.28 120.64 267.8 120 269.56 120H386.2C387.96 120 389.4 120.64 390.52 121.92C391.8 123.04 392.44 124.48 392.44 126.24V151.68C392.44 153.76 392.04 155.6 391.24 157.2C390.44 158.64 389.48 159.68 388.36 160.32L355.96 186.72L356.92 187.2C365.4 188.8 373.08 191.52 379.96 195.36C386.84 199.04 392.28 204.24 396.28 210.96C400.28 217.68 402.28 226.16 402.28 236.4C402.28 247.28 399 256.8 392.44 264.96C386.04 272.96 377.24 279.2 366.04 283.68C355 288.16 342.2 290.4 327.64 290.4Z" fill="url(#paint37_linear_4_2)"/>
<defs>
<filter id="filter0_d_4_2" x="94.9465" y="109.889" width="187.827" height="180.56" filterUnits="userSpaceOnUse" color-interpolation-filters="sRGB">
<feFlood flood-opacity="0" result="BackgroundImageFix"/>
<feColorMatrix in="SourceAlpha" type="matrix" values="0 0 0 0 0 0 0 0 0 0 0 0 0 0 0 0 0 0 127 0" result="hardAlpha"/>
<feOffset dx="-7"/>
<feGaussianBlur stdDeviation="2"/>
<feColorMatrix type="matrix" values="0 0 0 0 0 0 0 0 0 0 0 0 0 0 0 0 0 0 0.4 0"/>
<feBlend mode="normal" in2="BackgroundImageFix" result="effect1_dropShadow_4_2"/>
<feBlend mode="normal" in="SourceGraphic" in2="effect1_dropShadow_4_2" result="shape"/>
</filter>
<filter id="filter1_f_4_2" x="175.834" y="15.3745" width="12.3136" height="17.4515" filterUnits="userSpaceOnUse" color-interpolation-filters="sRGB">
<feFlood flood-opacity="0" result="BackgroundImageFix"/>
<feBlend mode="normal" in="SourceGraphic" in2="BackgroundImageFix" result="shape"/>
<feGaussianBlur stdDeviation="2" result="effect1_foregroundBlur_4_2"/>
</filter>
<filter id="filter2_i_4_2" x="174.869" y="63.9801" width="2.80688" height="7.16456" filterUnits="userSpaceOnUse" color-interpolation-filters="sRGB">
<feFlood flood-opacity="0" result="BackgroundImageFix"/>
<feBlend mode="normal" in="SourceGraphic" in2="BackgroundImageFix" result="shape"/>
<feColorMatrix in="SourceAlpha" type="matrix" values="0 0 0 0 0 0 0 0 0 0 0 0 0 0 0 0 0 0 127 0" result="hardAlpha"/>
<feOffset dy="4"/>
<feGaussianBlur stdDeviation="2"/>
<feComposite in2="hardAlpha" operator="arithmetic" k2="-1" k3="1"/>
<feColorMatrix type="matrix" values="0 0 0 0 0 0 0 0 0 0 0 0 0 0 0 0 0 0 0.35 0"/>
<feBlend mode="normal" in2="shape" result="effect1_innerShadow_4_2"/>
</filter>
<filter id="filter3_i_4_2" x="178.719" y="65.2991" width="0.581299" height="0.807167" filterUnits="userSpaceOnUse" color-interpolation-filters="sRGB">
<feFlood flood-opacity="0" result="BackgroundImageFix"/>
<feBlend mode="normal" in="SourceGraphic" in2="BackgroundImageFix" result="shape"/>
<feColorMatrix in="SourceAlpha" type="matrix" values="0 0 0 0 0 0 0 0 0 0 0 0 0 0 0 0 0 0 127 0" result="hardAlpha"/>
<feOffset dy="0.5"/>
<feGaussianBlur stdDeviation="0.25"/>
<feComposite in2="hardAlpha" operator="arithmetic" k2="-1" k3="1"/>
<feColorMatrix type="matrix" values="0 0 0 0 0 0 0 0 0 0 0 0 0 0 0 0 0 0 0.05 0"/>
<feBlend mode="normal" in2="shape" result="effect1_innerShadow_4_2"/>
</filter>
<filter id="filter4_i_4_2" x="180.548" y="66.2726" width="0.769165" height="0.245119" filterUnits="userSpaceOnUse" color-interpolation-filters="sRGB">
<feFlood flood-opacity="0" result="BackgroundImageFix"/>
<feBlend mode="normal" in="SourceGraphic" in2="BackgroundImageFix" result="shape"/>
<feColorMatrix in="SourceAlpha" type="matrix" values="0 0 0 0 0 0 0 0 0 0 0 0 0 0 0 0 0 0 127 0" result="hardAlpha"/>
<feOffset dy="0.1"/>
<feGaussianBlur stdDeviation="0.05"/>
<feComposite in2="hardAlpha" operator="arithmetic" k2="-1" k3="1"/>
<feColorMatrix type="matrix" values="0 0 0 0 0 0 0 0 0 0 0 0 0 0 0 0 0 0 0.25 0"/>
<feBlend mode="normal" in2="shape" result="effect1_innerShadow_4_2"/>
</filter>
<filter id="filter5_i_4_2" x="175.977" y="65.3301" width="1.31995" height="1.47135" filterUnits="userSpaceOnUse" color-interpolation-filters="sRGB">
<feFlood flood-opacity="0" result="BackgroundImageFix"/>
<feBlend mode="normal" in="SourceGraphic" in2="BackgroundImageFix" result="shape"/>
<feColorMatrix in="SourceAlpha" type="matrix" values="0 0 0 0 0 0 0 0 0 0 0 0 0 0 0 0 0 0 127 0" result="hardAlpha"/>
<feOffset dy="0.5"/>
<feGaussianBlur stdDeviation="0.75"/>
<feComposite in2="hardAlpha" operator="arithmetic" k2="-1" k3="1"/>
<feColorMatrix type="matrix" values="0 0 0 0 0 0 0 0 0 0 0 0 0 0 0 0 0 0 0.04 0"/>
<feBlend mode="normal" in2="shape" result="effect1_innerShadow_4_2"/>
</filter>
<filter id="filter6_i_4_2" x="178.819" y="65.3527" width="0.36499" height="0.312395" filterUnits="userSpaceOnUse" color-interpolation-filters="sRGB">
<feFlood flood-opacity="0" result="BackgroundImageFix"/>
<feBlend mode="normal" in="SourceGraphic" in2="BackgroundImageFix" result="shape"/>
<feColorMatrix in="SourceAlpha" type="matrix" values="0 0 0 0 0 0 0 0 0 0 0 0 0 0 0 0 0 0 127 0" result="hardAlpha"/>
<feOffset dy="0.1"/>
<feGaussianBlur stdDeviation="0.05"/>
<feComposite in2="hardAlpha" operator="arithmetic" k2="-1" k3="1"/>
<feColorMatrix type="matrix" values="0 0 0 0 0 0 0 0 0 0 0 0 0 0 0 0 0 0 0.25 0"/>
<feBlend mode="normal" in2="shape" result="effect1_innerShadow_4_2"/>
</filter>
<linearGradient id="paint0_linear_4_2" x1="161.926" y1="121.14" x2="231.062" y2="279.198" gradientUnits="userSpaceOnUse">
<stop stop-color="#00CEFD"/>
<stop offset="1" stop-color="#000B0E"/>
</linearGradient>
<linearGradient id="paint1_linear_4_2" x1="144.681" y1="168.111" x2="155.32" y2="192.427" gradientUnits="userSpaceOnUse">
<stop stop-color="#DDF9FF"/>
<stop offset="1" stop-color="#00CEFD"/>
</linearGradient>
<linearGradient id="paint2_linear_4_2" x1="236.385" y1="138.443" x2="240.976" y2="146.403" gradientUnits="userSpaceOnUse">
<stop stop-color="#190306"/>
<stop offset="1" stop-color="#00CEFD"/>
</linearGradient>
<linearGradient id="paint3_linear_4_2" x1="266.637" y1="206.731" x2="276.145" y2="210.041" gradientUnits="userSpaceOnUse">
<stop stop-color="#2E0508"/>
<stop offset="1" stop-color="#7D060D"/>
</linearGradient>
<linearGradient id="paint4_linear_4_2" x1="186.748" y1="115.139" x2="187.362" y2="120.502" gradientUnits="userSpaceOnUse">
<stop stop-color="#420609"/>
<stop offset="1" stop-color="#DF131E"/>
</linearGradient>
<linearGradient id="paint5_linear_4_2" x1="202.263" y1="236.234" x2="208.975" y2="271.183" gradientUnits="userSpaceOnUse">
<stop stop-color="#C8F5FF"/>
<stop offset="1" stop-color="#00CEFD"/>
</linearGradient>
<linearGradient id="paint6_linear_4_2" x1="119.713" y1="242.423" x2="110.909" y2="211.028" gradientUnits="userSpaceOnUse">
<stop stop-color="#00CEFD"/>
<stop offset="1" stop-color="#044654"/>
</linearGradient>
<linearGradient id="paint7_linear_4_2" x1="213.035" y1="283.389" x2="179.944" y2="285.069" gradientUnits="userSpaceOnUse">
<stop stop-color="#2A0001"/>
<stop offset="1" stop-color="#360103"/>
</linearGradient>
<linearGradient id="paint8_linear_4_2" x1="213.176" y1="281.402" x2="179.966" y2="281.394" gradientUnits="userSpaceOnUse">
<stop stop-color="#00CEFD"/>
<stop offset="1" stop-color="#008DAC"/>
</linearGradient>
<linearGradient id="paint9_linear_4_2" x1="269.436" y1="248.279" x2="281.047" y2="223.397" gradientUnits="userSpaceOnUse">
<stop stop-color="#380103"/>
<stop offset="1" stop-color="#470205"/>
</linearGradient>
<linearGradient id="paint10_linear_4_2" x1="267.012" y1="247.176" x2="278.526" y2="222.248" gradientUnits="userSpaceOnUse">
<stop stop-color="#380103"/>
<stop offset="1" stop-color="#470205"/>
</linearGradient>
<linearGradient id="paint11_linear_4_2" x1="259.482" y1="137.14" x2="271.094" y2="152.069" gradientUnits="userSpaceOnUse">
<stop stop-color="#92090E"/>
<stop offset="1" stop-color="#82070C"/>
</linearGradient>
<linearGradient id="paint12_linear_4_2" x1="258.157" y1="138.044" x2="269.386" y2="153.294" gradientUnits="userSpaceOnUse">
<stop stop-color="#00CEFD"/>
<stop offset="1" stop-color="#008DAC"/>
</linearGradient>
<linearGradient id="paint13_linear_4_2" x1="171.923" y1="47.6867" x2="142.924" y2="63.5823" gradientUnits="userSpaceOnUse">
<stop stop-color="#778186"/>
<stop offset="1" stop-color="#474B4C"/>
</linearGradient>
<linearGradient id="paint14_linear_4_2" x1="172.353" y1="48.9754" x2="144.428" y2="64.0118" gradientUnits="userSpaceOnUse">
<stop stop-color="#C1C1C1"/>
<stop offset="1" stop-color="#929292"/>
</linearGradient>
<linearGradient id="paint15_linear_4_2" x1="201.351" y1="47.9014" x2="175.145" y2="188.17" gradientUnits="userSpaceOnUse">
<stop stop-color="white"/>
<stop offset="1" stop-color="#00CEFD"/>
</linearGradient>
<linearGradient id="paint16_linear_4_2" x1="201.352" y1="47.9015" x2="175.145" y2="188.17" gradientUnits="userSpaceOnUse">
<stop stop-color="#008DAC"/>
<stop offset="1" stop-color="#00CEFD"/>
</linearGradient>
<linearGradient id="paint17_linear_4_2" x1="180.3" y1="90.0036" x2="184.167" y2="88.0703" gradientUnits="userSpaceOnUse">
<stop stop-color="#6A4222"/>
<stop offset="1" stop-color="#D58947"/>
</linearGradient>
<linearGradient id="paint18_linear_4_2" x1="158.82" y1="61.4344" x2="160.109" y2="65.5157" gradientUnits="userSpaceOnUse">
<stop stop-color="#D48845"/>
<stop offset="1" stop-color="#4E3219"/>
</linearGradient>
<linearGradient id="paint19_linear_4_2" x1="177.938" y1="52.1977" x2="180.73" y2="51.9829" gradientUnits="userSpaceOnUse">
<stop stop-color="#D48641" stop-opacity="0"/>
<stop offset="1" stop-color="#4E3219"/>
</linearGradient>
<linearGradient id="paint20_linear_4_2" x1="149.584" y1="79.6929" x2="151.019" y2="93.2558" gradientUnits="userSpaceOnUse">
<stop stop-color="#D58A49"/>
<stop offset="1" stop-color="#281709"/>
</linearGradient>
<linearGradient id="paint21_linear_4_2" x1="119.014" y1="21.051" x2="169.923" y2="29.2136" gradientUnits="userSpaceOnUse">
<stop stop-color="#9F9F9F"/>
<stop offset="1" stop-color="#787877"/>
</linearGradient>
<linearGradient id="paint22_linear_4_2" x1="119.873" y1="28.7839" x2="159.182" y2="29.8579" gradientUnits="userSpaceOnUse">
<stop stop-color="#CBCBCB"/>
<stop offset="1" stop-color="#828380"/>
</linearGradient>
<linearGradient id="paint23_linear_4_2" x1="129.354" y1="33.9813" x2="173.175" y2="35.0553" gradientUnits="userSpaceOnUse">
<stop stop-color="#00CEFD"/>
<stop offset="0.390625" stop-color="#008DAC"/>
<stop offset="0.970597" stop-color="#D4F4FB"/>
</linearGradient>
<linearGradient id="paint24_linear_4_2" x1="159.427" y1="15.723" x2="136.228" y2="32.4779" gradientUnits="userSpaceOnUse">
<stop stop-color="#00CEFD"/>
<stop offset="1" stop-color="#1B0A5D" stop-opacity="0"/>
</linearGradient>
<linearGradient id="paint25_linear_4_2" x1="127.176" y1="33.5095" x2="174.863" y2="33.5095" gradientUnits="userSpaceOnUse">
<stop stop-color="#008DAC"/>
<stop offset="1" stop-color="#3F403E"/>
<stop offset="1" stop-color="#00CEFD"/>
</linearGradient>
<linearGradient id="paint26_linear_4_2" x1="175.636" y1="64.4449" x2="176.518" y2="65.5467" gradientUnits="userSpaceOnUse">
<stop stop-color="#A58C7A"/>
<stop offset="1" stop-color="#7B5C46" stop-opacity="0"/>
</linearGradient>
<linearGradient id="paint27_linear_4_2" x1="175.635" y1="64.4454" x2="176.517" y2="65.5472" gradientUnits="userSpaceOnUse">
<stop stop-color="#A58C7A"/>
<stop offset="1" stop-color="#7B5C46" stop-opacity="0"/>
</linearGradient>
<linearGradient id="paint28_linear_4_2" x1="176.714" y1="64.2717" x2="177.113" y2="64.7642" gradientUnits="userSpaceOnUse">
<stop stop-color="#95614F"/>
<stop offset="1" stop-color="#372620" stop-opacity="0"/>
</linearGradient>
<linearGradient id="paint29_linear_4_2" x1="176.163" y1="64.217" x2="176.635" y2="64.7995" gradientUnits="userSpaceOnUse">
<stop stop-color="#95614F"/>
<stop offset="1" stop-color="#372620" stop-opacity="0"/>
</linearGradient>
<linearGradient id="paint30_linear_4_2" x1="175.736" y1="64.3696" x2="176.184" y2="64.9232" gradientUnits="userSpaceOnUse">
<stop stop-color="#95614F"/>
<stop offset="1" stop-color="#372620" stop-opacity="0"/>
</linearGradient>
<linearGradient id="paint31_linear_4_2" x1="175.409" y1="64.632" x2="175.815" y2="65.1323" gradientUnits="userSpaceOnUse">
<stop stop-color="#95614F"/>
<stop offset="1" stop-color="#372620" stop-opacity="0"/>
</linearGradient>
<linearGradient id="paint32_linear_4_2" x1="175.191" y1="64.9205" x2="175.554" y2="65.3694" gradientUnits="userSpaceOnUse">
<stop stop-color="#95614F"/>
<stop offset="1" stop-color="#372620" stop-opacity="0"/>
</linearGradient>
<linearGradient id="paint33_linear_4_2" x1="175.013" y1="65.2932" x2="175.328" y2="65.6828" gradientUnits="userSpaceOnUse">
<stop stop-color="#95614F"/>
<stop offset="1" stop-color="#372620" stop-opacity="0"/>
</linearGradient>
<linearGradient id="paint34_linear_4_2" x1="174.936" y1="65.7219" x2="175.195" y2="66.0424" gradientUnits="userSpaceOnUse">
<stop stop-color="#95614F"/>
<stop offset="1" stop-color="#372620" stop-opacity="0"/>
</linearGradient>
<linearGradient id="paint35_linear_4_2" x1="176.808" y1="66.1973" x2="176.841" y2="66.4307" gradientUnits="userSpaceOnUse">
<stop/>
<stop offset="1" stop-color="#BC0624"/>
</linearGradient>
<linearGradient id="paint36_linear_4_2" x1="178.714" y1="60.7706" x2="179.58" y2="69.0531" gradientUnits="userSpaceOnUse">
<stop offset="0.0001" stop-color="#F44336"/>
<stop offset="1" stop-color="#BC0624" stop-opacity="0"/>
</linearGradient>
<linearGradient id="paint37_linear_4_2" x1="329.5" y1="64" x2="329.5" y2="348" gradientUnits="userSpaceOnUse">
<stop stop-color="#008DAC"/>
<stop offset="1" stop-color="#008DAC"/>
</linearGradient>
</defs>
</svg>
