<svg width="100" height="100" viewBox="0 0 100 100" fill="none" xmlns="http://www.w3.org/2000/svg">
<g filter="url(#filter0_d_513_48)">
<path d="M32.6795 30C40.3775 16.6667 59.6225 16.6667 67.3205 30L75.9808 45C83.6788 58.3333 74.0563 75 58.6603 75H41.3397C25.9437 75 16.3212 58.3333 24.0192 45L32.6795 30Z" fill="url(#paint0_linear_513_48)" shape-rendering="crispEdges"/>
</g>
<path d="M50.8735 50.7821H44.6646L44.6313 47.3622H49.8442C50.7629 47.3622 51.5155 47.2459 52.1021 47.0135C52.6886 46.77 53.1258 46.4214 53.4136 45.9676C53.7124 45.5028 53.8618 44.9383 53.8618 44.2743C53.8618 43.5217 53.7179 42.9129 53.4302 42.4481C53.1535 41.9832 52.7163 41.6457 52.1187 41.4354C51.5321 41.2251 50.7739 41.12 49.8442 41.12H46.3911V61.3905H41.4106V37.2186H49.8442C51.2498 37.2186 52.506 37.3514 53.6128 37.617C54.7306 37.8827 55.6769 38.2866 56.4517 38.8289C57.2264 39.3713 57.8185 40.0575 58.228 40.8875C58.6375 41.7066 58.8423 42.6805 58.8423 43.8094C58.8423 44.8055 58.6154 45.7241 58.1616 46.5653C57.7189 47.4064 57.0161 48.0926 56.0532 48.6239C55.1014 49.1551 53.8563 49.4484 52.3179 49.5038L50.8735 50.7821ZM50.6577 61.3905H43.3032L45.2456 57.5057H50.6577C51.5321 57.5057 52.2459 57.3674 52.7993 57.0907C53.3527 56.8029 53.7622 56.4155 54.0278 55.9286C54.2935 55.4416 54.4263 54.8827 54.4263 54.2518C54.4263 53.5435 54.3045 52.9292 54.061 52.409C53.8286 51.8888 53.4523 51.4904 52.9321 51.2137C52.4119 50.926 51.7257 50.7821 50.8735 50.7821H46.0757L46.1089 47.3622H52.0854L53.231 48.7069C54.703 48.6847 55.8872 48.9448 56.7837 49.4872C57.6912 50.0184 58.3498 50.7101 58.7593 51.5623C59.1799 52.4146 59.3901 53.3276 59.3901 54.3016C59.3901 55.8511 59.0526 57.1571 58.3774 58.2196C57.7023 59.271 56.7118 60.0623 55.4058 60.5936C54.1108 61.1248 52.5282 61.3905 50.6577 61.3905Z" fill="white"/>
<defs>
<filter id="filter0_d_513_48" x="2.30981" y="2" width="97.3804" height="95" filterUnits="userSpaceOnUse" color-interpolation-filters="sRGB">
<feFlood flood-opacity="0" result="BackgroundImageFix"/>
<feColorMatrix in="SourceAlpha" type="matrix" values="0 0 0 0 0 0 0 0 0 0 0 0 0 0 0 0 0 0 127 0" result="hardAlpha"/>
<feOffset dx="1" dy="2"/>
<feGaussianBlur stdDeviation="10"/>
<feComposite in2="hardAlpha" operator="out"/>
<feColorMatrix type="matrix" values="0 0 0 0 0 0 0 0 0 0.811765 0 0 0 0 0.992157 0 0 0 1 0"/>
<feBlend mode="normal" in2="BackgroundImageFix" result="effect1_dropShadow_513_48"/>
<feBlend mode="normal" in="SourceGraphic" in2="effect1_dropShadow_513_48" result="shape"/>
</filter>
<linearGradient id="paint0_linear_513_48" x1="50" y1="0" x2="50" y2="100" gradientUnits="userSpaceOnUse">
<stop stop-color="#00CFFD"/>
<stop offset="1" stop-color="#00E9DF" stop-opacity="0.76"/>
</linearGradient>
</defs>
</svg>
