<svg width="100" height="100" viewBox="0 0 100 100" fill="none" xmlns="http://www.w3.org/2000/svg">
<path d="M42.0581 61.3905V37.2186H49.9604C52.5835 37.2186 54.5535 37.7609 55.8706 38.8456C57.1987 39.9302 57.8628 41.535 57.8628 43.66C57.8628 44.7889 57.5418 45.7905 56.8999 46.6649C56.258 47.5282 55.3836 48.1978 54.2769 48.6737C55.5828 49.0389 56.6121 49.7362 57.3647 50.7655C58.1284 51.7837 58.5103 53.0011 58.5103 54.4178C58.5103 56.5871 57.8075 58.2915 56.4019 59.5311C54.9963 60.7707 53.0096 61.3905 50.4419 61.3905H42.0581ZM45.2456 50.0848V58.784H50.5083C51.9914 58.784 53.159 58.4022 54.0112 57.6385C54.8745 56.8638 55.3062 55.8013 55.3062 54.451C55.3062 51.5402 53.7235 50.0848 50.5581 50.0848H45.2456ZM45.2456 47.5282H50.0601C51.4546 47.5282 52.5669 47.1795 53.397 46.4823C54.2381 45.785 54.6587 44.8387 54.6587 43.6434C54.6587 42.3153 54.2713 41.3524 53.4966 40.7547C52.7218 40.146 51.5431 39.8416 49.9604 39.8416H45.2456V47.5282Z" fill="#00CFFD"/>
<path d="M34.195 30.875C41.2195 18.7083 58.7805 18.7083 65.805 30.875L74.4652 45.875C81.4896 58.0417 72.7091 73.25 58.6603 73.25H41.3397C27.2909 73.25 18.5104 58.0417 25.5348 45.875L34.195 30.875Z" stroke="#00CFFD" stroke-width="3.5"/>
</svg>
